<svg width="244" height="44" viewBox="0 0 244 44" fill="none" xmlns="http://www.w3.org/2000/svg">
<path d="M15 21.8C15 15.5 18.825 11 24.9 11C30.075 11 33.675 14.375 34.35 19.1H30.975C30.525 16.175 28.05 14.15 24.9 14.15C20.85 14.15 18.6 17.3 18.6 21.8C18.6 26.3 21.075 29.45 24.9 29.45C28.275 29.45 30.525 27.2 30.975 24.275H34.35C33.675 29 30.075 32.375 24.9 32.375C18.825 32.375 15 27.875 15 21.8Z" fill="white"/>
<path d="M35.925 24.95C35.925 20.675 38.625 17.525 42.9 17.525C47.175 17.525 49.8751 20.675 49.8751 24.95C49.8751 29.225 47.175 32.375 42.9 32.375C38.85 32.375 35.925 29.225 35.925 24.95ZM46.7251 24.95C46.7251 22.025 45.375 20 42.9 20C40.425 20 39.075 21.8 39.075 24.95C39.075 27.875 40.425 29.9 42.9 29.9C45.375 29.9 46.7251 27.875 46.7251 24.95Z" fill="white"/>
<path d="M75.3001 23.375V31.925H72.1501V24.05C72.1501 20.9 70.8001 20 69.2251 20C66.9751 20 65.4001 21.8 65.4001 24.5V31.925H62.2501V24.05C62.2501 20.9 60.9001 20 59.3251 20C57.0751 20 55.5001 21.8 55.5001 24.5V31.925H52.3501V17.75H55.5001V19.775C56.6251 17.975 58.4251 17.3 60.2251 17.3C62.4751 17.3 64.0501 18.2 64.7251 20.225C66.3001 17.975 68.1001 17.3 70.1251 17.3C73.5001 17.3 75.3001 19.325 75.3001 23.375Z" fill="white"/>
<path d="M101.625 23.375V31.925H98.475V24.05C98.475 20.9 97.125 20 95.55 20C93.3 20 91.725 21.8 91.725 24.5V31.925H88.575V24.05C88.575 20.9 87.225 20 85.65 20C83.4 20 81.825 21.8 81.825 24.5V31.925H78.675V17.75H81.825V19.775C82.95 17.975 84.75 17.3 86.55 17.3C88.8 17.3 90.375 18.2 91.05 20.225C92.625 17.975 94.425 17.3 96.45 17.3C99.825 17.3 101.625 19.325 101.625 23.375Z" fill="white"/>
<path d="M104.1 24.95C104.1 20.675 106.8 17.525 111.075 17.525C115.35 17.525 118.05 20.675 118.05 24.95C118.05 29.225 115.35 32.375 111.075 32.375C106.8 32.375 104.1 29.225 104.1 24.95ZM114.9 24.95C114.9 22.025 113.55 20 111.075 20C108.6 20 107.25 21.8 107.25 24.95C107.25 27.875 108.6 29.9 111.075 29.9C113.55 29.675 114.9 27.875 114.9 24.95Z" fill="white"/>
<path d="M120.525 17.75H123.675V19.775C124.8 17.75 126.6 17.3 128.4 17.3C131.55 17.3 133.575 19.55 133.575 23.15V31.925H130.425V24.05C130.425 21.35 129.3 19.775 127.5 19.775C125.475 19.775 123.9 21.575 123.9 24.275V31.7H120.525V17.75Z" fill="white"/>
<path d="M147.975 14.6V19.775H157.425V22.925H147.975V32.15H144.825V11.45H158.55V14.6H147.975Z" fill="white"/>
<path d="M159 27.875C159 26.525 159.45 25.4 160.575 24.725C161.7 23.825 163.725 23.375 167.775 23.375H168.45V22.475C168.45 20.9 167.775 19.775 165.75 19.775C163.5 19.775 162.825 20.9 162.825 21.8H159.675C159.675 19.775 161.025 17.075 165.75 17.075C169.35 17.075 171.6 18.425 171.6 23.15V28.1V29.9V31.7H168.45V29.675C167.55 31.025 165.75 31.925 163.725 31.925C160.35 32.15 159 30.125 159 27.875ZM168.45 27.2V25.175H167.775C164.625 25.175 162.15 25.625 162.15 27.875C162.15 29.225 163.05 29.9 164.85 29.9C167.325 29.9 168.45 28.325 168.45 27.2Z" fill="white"/>
<path d="M174.975 27.875V20.45H173.175V17.975C174.75 17.975 175.2 17.3 175.2 15.725V14.15H178.125V17.75H181.275V20.45H178.35V26.975C178.35 28.775 179.025 29.225 180.6 29.225C180.825 29.225 181.275 29.225 181.5 29.225V31.925C180.825 31.925 180.375 31.925 179.475 31.925C176.1 32.15 174.975 30.8 174.975 27.875Z" fill="white"/>
<path d="M182.85 24.725C182.85 20.45 185.325 17.3 189.6 17.3C193.425 17.3 196.125 19.775 196.125 23.825V25.85H186C186.225 28.325 187.575 29.675 189.6 29.675C191.4 29.675 192.525 28.55 192.975 27.65H196.125C195.9 29.675 193.65 32.375 189.6 32.375C185.325 32.375 182.85 29.225 182.85 24.725ZM192.975 23.6C192.975 21.125 191.4 20 189.6 20C187.575 20 186 21.125 186 23.6H192.975Z" fill="white"/>
<path d="M219.075 11H207.375V15.275H219.075V11Z" fill="#ED77C0"/>
<path d="M224.025 27.65H207.375V31.925H224.025V27.65Z" fill="#30D15D"/>
<path d="M228.3 19.325H207.375V23.6H228.3V19.325Z" fill="#619EFF"/>
<rect x="0.375" y="0.375" width="242.55" height="42.625" rx="4.625" stroke="#525557" stroke-width="0.75"/>
</svg>
