<svg id="Layer_1" data-name="Layer 1" xmlns="http://www.w3.org/2000/svg" viewBox="0 0 438.07 77.57">
	<defs>
		<style>.cls-1{fill:#eeedf4;}.cls-2{fill:#bcbac6;}.cls-3{fill:#26223a;}.cls-4{fill:#ed77c0;}.cls-5{fill:#30d15d;}.cls-6{fill:#619eff;}</style>
	</defs>
	<rect class="cls-1" x="1" y="1" width="436.06" height="75.56" rx="8.54" />
	<path class="cls-2" d="M804.76,382.1a8.54,8.54,0,0,1,8.55,8.54v58.48a8.54,8.54,0,0,1-8.55,8.54h-419a8.54,8.54,0,0,1-8.54-8.54V390.64a8.54,8.54,0,0,1,8.54-8.54h419m0-1h-419a9.56,9.56,0,0,0-9.55,9.55v58.48a9.55,9.55,0,0,0,9.55,9.54h419a9.55,9.55,0,0,0,9.55-9.54V390.64a9.56,9.56,0,0,0-9.55-9.55Z" transform="translate(-376.24 -381.09)" />
	<path class="cls-3" d="M404.83,420.07c0-11.32,6.89-19.27,17.83-19.27,9.35,0,15.76,6.16,16.77,14.36h-6.07a10.82,10.82,0,0,0-11-9c-7,0-11.32,5.69-11.32,13.74s4.28,13.74,11.42,13.74a10.76,10.76,0,0,0,10.94-9.06h6.07c-1.06,8.28-7.47,14.4-17,14.4C411.48,439,404.83,431.11,404.83,420.07Z" transform="translate(-376.24 -381.09)" />
	<path class="cls-3" d="M442.29,425.52c0-7.81,4.92-13.4,12.53-13.4s12.44,5.59,12.44,13.4S462.39,439,454.82,439,442.29,433.18,442.29,425.52Zm19.33,0c0-5.35-2.56-8.67-6.84-8.67s-6.85,3.32-6.85,8.67,2.56,8.72,6.85,8.72S461.62,430.92,461.62,425.52Z" transform="translate(-376.24 -381.09)" />
	<path class="cls-3" d="M512.52,422.87v15.32h-5.68V423.93c0-5.73-2.51-7.08-5.11-7.08-4,0-6.85,3-6.85,8v13.3H489.2V423.93c0-5.73-2.51-7.08-5.11-7.08-4,0-6.84,3-6.84,8v13.3h-5.69v-25.3h5.69v3.81a9.38,9.38,0,0,1,8.58-4.58c3.95,0,6.74,1.69,8.09,5.11a10.92,10.92,0,0,1,9.54-5.11C509.2,412.12,512.52,415.64,512.52,422.87Z" transform="translate(-376.24 -381.09)" />
	<path class="cls-3" d="M559.44,422.87v15.32h-5.69V423.93c0-5.73-2.5-7.08-5.11-7.08-4,0-6.84,3-6.84,8v13.3h-5.69V423.93c0-5.73-2.5-7.08-5.1-7.08-4,0-6.85,3-6.85,8v13.3h-5.68v-25.3h5.68v3.81a9.39,9.39,0,0,1,8.58-4.58c4,0,6.75,1.69,8.1,5.11a10.92,10.92,0,0,1,9.54-5.11C556.11,412.12,559.44,415.64,559.44,422.87Z" transform="translate(-376.24 -381.09)" />
	<path class="cls-3" d="M564,425.52c0-7.81,4.92-13.4,12.53-13.4S589,417.71,589,425.52,584.09,439,576.52,439,564,433.18,564,425.52Zm19.33,0c0-5.35-2.55-8.67-6.84-8.67s-6.85,3.32-6.85,8.67,2.56,8.72,6.85,8.72S583.32,430.92,583.32,425.52Z" transform="translate(-376.24 -381.09)" />
	<path class="cls-3" d="M593.26,412.89H599v3.81a9.4,9.4,0,0,1,8.38-4.58c5.79,0,9.26,4.2,9.26,10.36v15.71H610.9V424.31c0-4.91-2-7.46-5.35-7.46-3.61,0-6.6,3-6.6,8v13.3h-5.69Z" transform="translate(-376.24 -381.09)" />
	<path class="cls-3" d="M642.39,407.2v9.21h16.72v5.45H642.39v16.33h-5.78V401.57h24.62v5.63Z" transform="translate(-376.24 -381.09)" />
	<path class="cls-3" d="M661.92,431.11a7,7,0,0,1,2.89-5.79c2.17-1.58,5.64-2.55,12.73-2.55h1.39v-1.35c0-2.84-1.3-4.72-5-4.72-4,0-5.16,2-5.25,3.71h-5.5c.1-3.81,2.32-8.24,10.85-8.24,6.5,0,10.6,2.6,10.6,10.94v15.08h-5.45v-3.51h-.09c-1.64,2.6-4.73,4-8.58,4C664.24,438.72,661.92,434.82,661.92,431.11ZM679,429.86v-3.52h-1.35c-5.49,0-10,.91-10,4.62,0,2.22,1.69,3.52,4.67,3.52C676.81,434.48,679,431.54,679,429.86Z" transform="translate(-376.24 -381.09)" />
	<path class="cls-3" d="M690.56,431.06v-13.2h-3.23v-4.44c2.85,0,3.52-1.25,3.52-4.14v-2.89h5.4v6.5h5.35v5h-5.35v11.75c0,3.19,1.2,4,4.14,4,.53,0,1,0,1.64-.05v4.91a24.39,24.39,0,0,1-3.42.19C692.59,438.67,690.56,436,690.56,431.06Z" transform="translate(-376.24 -381.09)" />
	<path class="cls-3" d="M704.5,425.47c0-7.81,4.48-13.35,12-13.35,6.75,0,11.76,4.43,11.76,11.57v3.56l-18,.05c.39,4.24,2.66,6.94,6.56,6.94a6,6,0,0,0,5.88-3.81h5.64c-.49,3.81-4.49,8.53-11.62,8.53C708.79,439,704.5,433.18,704.5,425.47Zm18.17-2.17c0-4.38-2.75-6.45-6.12-6.45s-6.27,2.07-6.27,6.45Z" transform="translate(-376.24 -381.09)" />
	<rect class="cls-4" x="372.09" y="19.7" width="20.96" height="7.79" />
	<rect class="cls-5" x="372.09" y="49.31" width="29.86" height="7.79" />
	<rect class="cls-6" x="372.09" y="34.51" width="37.4" height="7.79" />
</svg>